<svg width="19" height="25" viewBox="0 0 19 25" fill="none" xmlns="http://www.w3.org/2000/svg">
<path d="M9.49937 25C4.57121 25 0.560795 20.9896 0.560795 16.0614C0.560795 11.3092 8.66654 0.677809 9.01099 0.228819C9.2435 -0.0762629 9.75404 -0.0762629 9.98775 0.228819C10.3322 0.677841 18.4392 11.3092 18.4392 16.0614C18.4392 20.9896 14.4288 25 9.49937 25ZM9.49937 1.63002C7.73403 4.02153 1.79097 12.3499 1.79097 16.0614C1.79097 20.3117 5.24905 23.7698 9.49937 23.7698C13.7509 23.7698 17.209 20.3117 17.209 16.0614C17.209 12.3499 11.2659 4.0215 9.49937 1.63002Z" fill="#818181"/>
<path d="M9.97913 22.6589C9.71834 22.6589 9.47601 22.4916 9.39236 22.2296C9.29024 21.9061 9.46865 21.5604 9.79217 21.457C12.255 20.6722 14.1495 18.7198 14.8618 16.2348C14.9553 15.9064 15.2973 15.7157 15.6221 15.8129C15.9481 15.9064 16.1375 16.2472 16.044 16.5732C15.2198 19.4555 13.0214 21.7203 10.1661 22.6294C10.1034 22.6503 10.0419 22.6589 9.97913 22.6589Z" fill="#818181"/>
</svg>
