<svg width="30" height="24" viewBox="0 0 30 24" fill="none" xmlns="http://www.w3.org/2000/svg">
<path d="M16.5543 17.9994L14.9971 9.77744L13.4398 17.9994C12.6612 18.4468 12.2196 19.3358 12.2196 20.3352C12.2196 21.8925 13.4398 23.1127 14.9971 23.1127C16.5543 23.1127 17.7745 21.8925 17.7745 20.3352C17.7803 19.3301 17.333 18.5514 16.5543 17.9994ZM15.0029 21.9971C14.1139 21.9971 13.3352 21.2185 13.3352 20.3295C13.3352 19.4404 14.1139 18.6618 15.0029 18.6618C15.8919 18.6618 16.6706 19.4404 16.6706 20.3295C16.6705 21.2185 15.8919 21.9971 15.0029 21.9971Z" fill="#818181"/>
<path d="M8.22194 5.66361C8.00114 5.44281 7.66413 5.33241 7.44333 5.55321C7.22253 5.77401 7.11212 6.11102 7.33293 6.33183L9.33176 8.99888C9.55256 9.21968 9.88957 9.33008 10.1104 9.10928C10.3312 8.88848 10.4416 8.55146 10.2208 8.33066L8.22194 5.66361Z" fill="#818181"/>
<path d="M6.33351 18.1098L3.10865 19.1093C2.77744 19.2196 2.66123 19.5566 2.77744 19.7775C2.88785 20.1086 3.21905 20.2191 3.44566 20.1086L6.67052 19.1093C7.00173 18.9989 7.11213 18.6676 7.00172 18.441C7.00172 18.2202 6.66471 17.9994 6.33351 18.1098Z" fill="#818181"/>
<path d="M6.77513 12.6653L3.55026 11.6659C3.21906 11.5555 2.99245 11.7763 2.88205 11.9971C2.77165 12.3283 2.99245 12.5549 3.21325 12.6653L6.43811 13.6648C6.76932 13.7751 6.99593 13.5544 7.10633 13.3336C7.11214 12.9966 7.00174 12.6653 6.77513 12.6653Z" fill="#818181"/>
<path d="M15.5548 6.99417V3.65891C15.5548 3.32771 15.3341 3.1011 14.9971 3.1011C14.6601 3.1011 14.4393 3.3219 14.4393 3.65891V6.99417C14.4393 7.32537 14.6601 7.55198 14.9971 7.55198C15.3341 7.55204 15.5548 7.33124 15.5548 6.99417Z" fill="#818181"/>
<path d="M21.778 5.66361L19.7792 8.3306C19.5583 8.5514 19.6688 8.88842 19.8896 9.10922C20.1103 9.33002 20.4474 9.21962 20.6681 8.99882L22.6669 6.33177C22.8877 6.11097 22.7773 5.77395 22.5565 5.55315C22.2254 5.3266 21.8883 5.44281 21.778 5.66361Z" fill="#818181"/>
<path d="M26.5601 11.6659L23.3352 12.6653C23.0041 12.7757 22.8936 13.1069 23.0041 13.3335C23.0041 13.5543 23.3352 13.7809 23.6723 13.6647L26.8972 12.6653C27.2283 12.5549 27.3445 12.2179 27.2283 11.9971C27.1121 11.6659 26.7809 11.5555 26.5601 11.6659Z" fill="#818181"/>
<path d="M15.0029 0.887276C6.67053 0.887276 0 7.55786 0 15.8902C0 17.5578 0.331202 19.2255 0.778616 20.7769L1.88843 20.4458C1.33062 18.9989 1.10982 17.4474 1.10982 15.8903C1.10982 8.22032 7.33293 1.99721 15.0029 1.99721C22.6728 1.99721 28.8901 8.22033 28.8901 15.8845C28.8901 17.4417 28.6694 18.9931 28.1116 20.4399L29.2214 20.7711C29.7793 19.2139 30.0001 17.6624 30.0001 15.8844C30.0058 7.55205 23.3352 0.887276 15.0029 0.887276Z" fill="#818181"/>
<path d="M26.7809 19.1093L23.556 18.1098C23.2248 17.9994 22.9982 18.2202 22.8878 18.441C22.7774 18.7722 22.9982 18.9989 23.219 19.1093L26.4438 20.1086C26.7751 20.219 27.0016 19.9983 27.112 19.7775C27.2225 19.5509 27.1121 19.2196 26.7809 19.1093Z" fill="#818181"/>
</svg>
