<svg width="30" height="19" viewBox="0 0 30 19" fill="none" xmlns="http://www.w3.org/2000/svg">
<path d="M22.2211 13.4615H6.66344V14.7191H22.2211C22.8892 14.7191 23.3307 15.2195 23.3307 15.9766C23.3307 16.7338 22.8892 17.2341 22.2211 17.2341C21.553 17.2341 21.1115 16.7337 21.1115 15.9765H20.0019C20.0019 17.3591 21.0011 18.4916 22.2211 18.4916C23.4411 18.4916 24.4402 17.3591 24.4402 15.9765C24.4402 14.5938 23.4411 13.4615 22.2211 13.4615Z" fill="#818181"/>
<path d="M19.9961 4.59527C19.9961 2.45546 18.5496 0.816032 16.6616 0.816032C14.7735 0.816032 13.3269 2.45546 13.3269 4.59527H14.4423C14.4423 3.21262 15.4416 2.08017 16.6616 2.08017C17.8815 2.08017 18.8807 3.21262 18.8807 4.59527C18.8807 5.97792 17.8815 7.11038 16.6616 7.11038H3.33463V8.37451H16.6673C18.5554 8.37451 19.9961 6.73509 19.9961 4.59527Z" fill="#818181"/>
<path d="M25.55 0.816032C23.1041 0.816032 21.1058 3.08094 21.1058 5.85283H22.2154C22.2154 3.71301 23.6619 2.07359 25.55 2.07359C27.4381 2.07359 28.8845 3.71301 28.8845 5.85283C28.8845 7.99264 27.4381 9.63207 25.55 9.63207H0V10.8896H25.5558C28.0015 10.8896 30 8.62471 30 5.85283C30 3.08094 27.9957 0.816032 25.55 0.816032Z" fill="#818181"/>
</svg>
